<svg xmlns="http://www.w3.org/2000/svg" xmlns:xlink="http://www.w3.org/1999/xlink" viewBox="0 0 200 200"><defs><style>.cls-1{fill:url(#Degradado_sin_nombre_28);}.cls-2{fill:#ffcc02;}.cls-3{fill:#e0a300;}.cls-4{fill:#e0be0a;}.cls-5{fill:#37ab21;}</style><linearGradient id="Degradado_sin_nombre_28" x1="199.64" y1="51.47" x2="118.22" y2="146.68" gradientUnits="userSpaceOnUse"><stop offset="0" stop-color="#41aa2c"/><stop offset="1" stop-color="#006700"/></linearGradient></defs><g id="Capa_2" data-name="Capa 2"><path class="cls-1" d="M197.27,42.11s-21.85-4.06-39.19,19.59c-7.86,11.11-7.94,32.13-12.82,41.11-4.51,11-17,33.28-26.82,41.1s-11.45,9.5-18.09,14.49.17,4.82,4.93,4.41c36.45-8.75,48.06-24.06,62.86-36.59s26.05-45.93,27.59-57.54A243.3,243.3,0,0,0,197.27,42.11Z"/></g><g id="Capa_3" data-name="Capa 3"><path class="cls-2" d="M20.8,131.05a55,55,0,0,0-11.71,0,19.48,19.48,0,0,0-5,2.64c-2.58,1.71.73,3.7.73,3.7s20.93,14.87,30.41,18.43c9.53,5.3,26.76,5.37,26.76,5.37s16.68,1.15,38-15.35,27.43-30.07,29.11-32.84C136.62,101,140.72,84.48,141,79c-1.12-5.09-7.54-3-7.81-2.35-6.11,10.54-26.85,27.58-26.85,27.58S83.4,119.52,77.07,121.63s-13.28,5.58-28.6,8.44C34.3,131.06,26.49,131.23,20.8,131.05Z"/></g><g id="Capa_4" data-name="Capa 4"><path class="cls-3" d="M23.28,131.26C19.05,131.2,10,131,10,131s1.85,1.31,4.63,2.95c3.87,2.66,21.77,9,21.77,9a92.6,92.6,0,0,0,17.45,1.8c14.43.8,23.83-4.41,28.8-6.68s14-7.91,23-16,11.19-10.43,17.84-18.51S138.62,82.93,140,81s-.67-7-6.35-4.5c-11.9,16.19-19.19,21.35-26.85,27.58s-24.18,15.57-29.27,17.41-13.28,5.58-28.59,8.44A112.63,112.63,0,0,1,23.28,131.26Z"/></g><g id="Capa_5" data-name="Capa 5"><path class="cls-4" d="M27,121.62C64.13,122.15,96.89,100,96,100c-13.21,2.69-38.55,2-38.55,2s-21.13-2.2-27.14-5a76.51,76.51,0,0,1-11.57-4.5,46.94,46.94,0,0,0-6.35-2.06A26.57,26.57,0,0,0,6.93,91s-3.95.88-2,3.86C12,106.67,24.12,119.61,27,121.62Z"/></g><g id="Capa_6" data-name="Capa 6"><path class="cls-2" d="M27,121.62c24.83.82,40.78-7.31,40.78-7.31l-10.33-.11s-16.53.33-26.28-3.56c-4.05-1.94-10.17-4.39-11.89-5.53s-5.41-3.69-5.41-3.69A59.66,59.66,0,0,1,8.8,97.16C8,96.15,2.57,91,4.51,94,11.61,105.85,24.12,119.61,27,121.62Z"/></g><g id="Capa_7" data-name="Capa 7"><path class="cls-5" d="M197.27,42s-5.83,2.35-7.51,5.3c-1.35,2.78-2.55,15.62-2.55,15.62-4.88,32.89-16.38,44.21-21.09,52C157,129.2,136,141.28,128.61,145.68s-21.07,7.8-23,8.49c0,0-3.17,2.5-5.3,4.1-6.65,5,.17,4.82,4.93,4.4,36.45-8.74,51.08-25.31,62.86-36.59s23.72-35.68,27.59-57.53A243.55,243.55,0,0,0,197.27,42Z"/></g></svg>